<svg xmlns="http://www.w3.org/2000/svg" width="1400" height="900" viewBox="0 0 1400 900" role="img" aria-labelledby="title desc">
  <title id="title">OCTO-APM-DEMO Platform Overview</title>
  <desc id="desc">High-contrast static preview generated from platform-overview.drawio for the OCTO APM demo architecture.</desc>
  <defs>
    <marker id="arrow" markerWidth="10" markerHeight="8" refX="9" refY="4" orient="auto" markerUnits="strokeWidth"><path d="M0,0 L10,4 L0,8 Z" fill="context-stroke"/></marker>
    <filter id="shadow" x="-12%" y="-12%" width="124%" height="124%"><feDropShadow dx="0" dy="3" stdDeviation="4" flood-color="#0f172a" flood-opacity="0.12"/></filter>
    <style>
      .page { fill: #f8fafc; }
      .node { filter: url(#shadow); }
      .label { font-family: Arial, sans-serif; letter-spacing: 0; }
      .edge { fill: none; stroke-width: 2.4; marker-end: url(#arrow); opacity: 0.82; }
    </style>
  </defs>
  <rect class="page" x="0" y="0" width="1400" height="900"/>
  <rect class="node" x="40.0" y="230.0" width="1320.0" height="380.0" rx="18" fill="#EEF2FF" stroke="#4F46E5" stroke-width="2"/>
  <text class="label" x="700.0" y="251.0" text-anchor="middle" font-size="13" font-weight="700" fill="#1E1B4B">OCI OKE (Kubernetes) — namespaces: octo-drone-shop, enterprise-crm, ops</text>
  <rect class="node" x="40.0" y="540.0" width="640.0" height="60.0" rx="18" fill="#F9FAFB" stroke="#9CA3AF" stroke-width="2" stroke-dasharray="8 6"/>
  <text class="label" x="360.0" y="561.0" text-anchor="middle" font-size="13" font-weight="700" fill="#111827">Data plane</text>
  <rect class="node" x="40.0" y="640.0" width="1320.0" height="240.0" rx="18" fill="#F0FDF4" stroke="#16A34A" stroke-width="2" stroke-dasharray="8 6"/>
  <text class="label" x="700.0" y="661.0" text-anchor="middle" font-size="13" font-weight="700" fill="#111827">OCI Observability + Security services</text>
  <path class="edge" d="M108.0 144.0 C174.0 144.0 174.0 150.0 240.0 150.0" stroke="#1F2937"/>
  <path class="edge" d="M400.0 150.0 C430.0 150.0 430.0 150.0 460.0 150.0" stroke="#1F2937"/>
  <path class="edge" d="M630.0 150.0 C660.0 150.0 660.0 150.0 690.0 150.0" stroke="#1F2937"/>
  <path class="edge" d="M775.0 180.0 C737.5 180.0 737.5 230.0 700.0 230.0" stroke="#1F2937"/>
  <path class="edge" d="M260.0 320.0 C395.0 320.0 395.0 320.0 530.0 320.0" stroke="#059669" stroke-dasharray="7 6"/>
  <path class="edge" d="M480.0 320.0 C505.0 320.0 505.0 320.0 530.0 320.0" stroke="#059669" stroke-dasharray="7 6"/>
  <path class="edge" d="M260.0 320.0 C500.0 320.0 500.0 320.0 740.0 320.0" stroke="#7C3AED"/>
  <path class="edge" d="M740.0 320.0 C610.0 320.0 610.0 320.0 480.0 320.0" stroke="#7C3AED"/>
  <path class="edge" d="M170.0 360.0 C175.0 360.0 175.0 550.0 180.0 550.0" stroke="#991B1B"/>
  <path class="edge" d="M390.0 360.0 C285.0 360.0 285.0 550.0 180.0 550.0" stroke="#991B1B"/>
  <path class="edge" d="M260.0 320.0 C290.0 320.0 290.0 575.0 320.0 575.0" stroke="#9A3412"/>
  <path class="edge" d="M740.0 320.0 C640.0 320.0 640.0 575.0 540.0 575.0" stroke="#9A3412"/>
  <path class="edge" d="M530.0 320.0 C360.0 320.0 360.0 725.0 190.0 725.0" stroke="#059669"/>
  <path class="edge" d="M615.0 360.0 C445.0 360.0 445.0 690.0 275.0 690.0" stroke="#059669"/>
  <path class="edge" d="M170.0 360.0 C307.5 360.0 307.5 690.0 445.0 690.0" stroke="#059669"/>
  <path class="edge" d="M390.0 360.0 C417.5 360.0 417.5 690.0 445.0 690.0" stroke="#059669"/>
  <path class="edge" d="M530.0 725.0 C540.0 725.0 540.0 725.0 550.0 725.0" stroke="#15803D" stroke-dasharray="7 6"/>
  <path class="edge" d="M300.0 575.0 C535.0 575.0 535.0 725.0 770.0 725.0" stroke="#15803D" stroke-dasharray="7 6"/>
  <path class="edge" d="M1045.0 690.0 C1032.5 690.0 1032.5 360.0 1020.0 360.0" stroke="#DC2626"/>
  <path class="edge" d="M1150.0 725.0 C1255.0 725.0 1255.0 420.0 1360.0 420.0" stroke="#2563EB" stroke-dasharray="7 6"/>
  <text class="label" x="700.0" y="47.3" text-anchor="middle" font-size="22" font-weight="700" fill="#1F2937">OCTO-APM-DEMO — Platform Overview</text>
  <circle cx="84.0" cy="134.0" r="12" fill="#dbeafe" stroke="#2563eb" stroke-width="2"/>
  <path d="M68.0 168.0 C70.0 148.0 98.0 148.0 100.0 168.0" fill="#dbeafe" stroke="#2563eb" stroke-width="2"/>
  <text class="label" x="116.0" y="139.0" text-anchor="start" font-size="11" font-weight="400" fill="#111827">End users</text>
  <text class="label" x="116.0" y="155.0" text-anchor="start" font-size="11" font-weight="400" fill="#111827">(browsers + mobile)</text>
  <rect class="node" x="240.0" y="120.0" width="160.0" height="60.0" rx="8" fill="#FEE2E2" stroke="#DC2626" stroke-width="2"/>
  <text class="label" x="320.0" y="145.5" text-anchor="middle" font-size="12" font-weight="700" fill="#111827">OCI WAF</text>
  <text class="label" x="320.0" y="162.5" text-anchor="middle" font-size="12" font-weight="700" fill="#111827">(DETECTION mode)</text>
  <rect class="node" x="460.0" y="120.0" width="170.0" height="60.0" rx="8" fill="#DBEAFE" stroke="#2563EB" stroke-width="2"/>
  <text class="label" x="545.0" y="145.5" text-anchor="middle" font-size="12" font-weight="700" fill="#111827">OCI LoadBalancer</text>
  <text class="label" x="545.0" y="162.5" text-anchor="middle" font-size="12" font-weight="700" fill="#111827">TLS + cert rotation</text>
  <rect class="node" x="690.0" y="120.0" width="170.0" height="60.0" rx="8" fill="#DBEAFE" stroke="#2563EB" stroke-width="2"/>
  <text class="label" x="775.0" y="145.5" text-anchor="middle" font-size="12" font-weight="700" fill="#111827">OCI API Gateway</text>
  <text class="label" x="775.0" y="162.5" text-anchor="middle" font-size="12" font-weight="700" fill="#111827">rate limit + auth</text>
  <rect class="node" x="80.0" y="280.0" width="180.0" height="80.0" rx="8" fill="#FEF3C7" stroke="#D97706" stroke-width="2"/>
  <text class="label" x="170.0" y="307.0" text-anchor="middle" font-size="12" font-weight="700" fill="#111827">octo-drone-shop</text>
  <text class="label" x="170.0" y="324.0" text-anchor="middle" font-size="12" font-weight="700" fill="#111827">FastAPI + Jinja + HTMX</text>
  <text class="label" x="170.0" y="341.0" text-anchor="middle" font-size="12" font-weight="700" fill="#111827">port 8080</text>
  <rect class="node" x="300.0" y="280.0" width="180.0" height="80.0" rx="8" fill="#FEF3C7" stroke="#D97706" stroke-width="2"/>
  <text class="label" x="390.0" y="307.0" text-anchor="middle" font-size="12" font-weight="700" fill="#111827">enterprise-crm-portal</text>
  <text class="label" x="390.0" y="324.0" text-anchor="middle" font-size="12" font-weight="700" fill="#111827">FastAPI + admin Coordinator</text>
  <text class="label" x="390.0" y="341.0" text-anchor="middle" font-size="12" font-weight="700" fill="#111827">port 8080</text>
  <rect class="node" x="530.0" y="280.0" width="170.0" height="80.0" rx="8" fill="#D1FAE5" stroke="#059669" stroke-width="2"/>
  <text class="label" x="615.0" y="307.0" text-anchor="middle" font-size="12" font-weight="700" fill="#111827">octo-otel-gateway</text>
  <text class="label" x="615.0" y="324.0" text-anchor="middle" font-size="12" font-weight="700" fill="#111827">OTel Collector</text>
  <text class="label" x="615.0" y="341.0" text-anchor="middle" font-size="12" font-weight="700" fill="#111827">OTLP gRPC/HTTP</text>
  <rect class="node" x="740.0" y="280.0" width="170.0" height="80.0" rx="8" fill="#FEF3C7" stroke="#D97706" stroke-width="2"/>
  <text class="label" x="825.0" y="307.0" text-anchor="middle" font-size="12" font-weight="700" fill="#111827">octo-async-worker</text>
  <text class="label" x="825.0" y="324.0" text-anchor="middle" font-size="12" font-weight="700" fill="#111827">Redis Streams consumer</text>
  <text class="label" x="825.0" y="341.0" text-anchor="middle" font-size="12" font-weight="700" fill="#111827">(order sync, retries)</text>
  <rect class="node" x="940.0" y="280.0" width="160.0" height="80.0" rx="8" fill="#FEE2E2" stroke="#DC2626" stroke-width="2"/>
  <text class="label" x="1020.0" y="307.0" text-anchor="middle" font-size="12" font-weight="700" fill="#111827">octo-remediator</text>
  <text class="label" x="1020.0" y="324.0" text-anchor="middle" font-size="12" font-weight="700" fill="#111827">alarm-driven actions</text>
  <text class="label" x="1020.0" y="341.0" text-anchor="middle" font-size="12" font-weight="700" fill="#111827">(tier-gated)</text>
  <rect class="node" x="1130.0" y="280.0" width="190.0" height="80.0" rx="8" fill="#E0E7FF" stroke="#6366F1" stroke-width="2"/>
  <text class="label" x="1225.0" y="307.0" text-anchor="middle" font-size="12" font-weight="700" fill="#111827">octo-browser-runner</text>
  <text class="label" x="1225.0" y="324.0" text-anchor="middle" font-size="12" font-weight="700" fill="#111827">Playwright journeys</text>
  <text class="label" x="1225.0" y="341.0" text-anchor="middle" font-size="12" font-weight="700" fill="#111827">(synthetic)</text>
  <rect class="node" x="80.0" y="400.0" width="200.0" height="60.0" rx="8" fill="#E0E7FF" stroke="#6366F1" stroke-width="2"/>
  <text class="label" x="180.0" y="425.5" text-anchor="middle" font-size="12" font-weight="700" fill="#111827">octo-load-control</text>
  <text class="label" x="180.0" y="442.5" text-anchor="middle" font-size="12" font-weight="700" fill="#111827">named profile orchestrator</text>
  <rect class="node" x="310.0" y="400.0" width="200.0" height="60.0" rx="8" fill="#FEF3C7" stroke="#D97706" stroke-width="2"/>
  <text class="label" x="410.0" y="418.0" text-anchor="middle" font-size="12" font-weight="700" fill="#111827">admin workflow gateway</text>
  <text class="label" x="410.0" y="435.0" text-anchor="middle" font-size="12" font-weight="700" fill="#111827">Select AI + Query Lab</text>
  <text class="label" x="410.0" y="452.0" text-anchor="middle" font-size="12" font-weight="700" fill="#111827">host-bound</text>
  <rect class="node" x="540.0" y="400.0" width="220.0" height="60.0" rx="8" fill="#F3E8FF" stroke="#9333EA" stroke-width="2"/>
  <text class="label" x="650.0" y="417.0" text-anchor="middle" font-size="12" font-weight="700" fill="#111827">octo-cache</text>
  <text class="label" x="650.0" y="434.0" text-anchor="middle" font-size="12" font-weight="700" fill="#111827">Redis client wrapper + OTel</text>
  <text class="label" x="650.0" y="451.0" text-anchor="middle" font-size="12" font-weight="700" fill="#111827">spans</text>
  <rect class="node" x="790.0" y="400.0" width="200.0" height="60.0" rx="8" fill="#F3E8FF" stroke="#9333EA" stroke-width="2"/>
  <text class="label" x="890.0" y="425.5" text-anchor="middle" font-size="12" font-weight="700" fill="#111827">octo-object-pipeline</text>
  <text class="label" x="890.0" y="442.5" text-anchor="middle" font-size="12" font-weight="700" fill="#111827">Object Storage drainer</text>
  <rect class="node" x="1020.0" y="400.0" width="160.0" height="60.0" rx="8" fill="#E0E7FF" stroke="#6366F1" stroke-width="2"/>
  <text class="label" x="1100.0" y="425.5" text-anchor="middle" font-size="12" font-weight="700" fill="#111827">octo-edge-gateway</text>
  <text class="label" x="1100.0" y="442.5" text-anchor="middle" font-size="12" font-weight="700" fill="#111827">TypeScript fuzzing</text>
  <text class="label" x="90.0" y="518.0" text-anchor="start" font-size="10" font-weight="400" fill="#4B5563">Application pods (FastAPI/Go) — Instrumentation layer (OTel) — Control plane (remediator/load-control) — Edge + synthetic (Playwright/TS)</text>
  <rect class="node" x="60.0" y="550.0" width="240.0" height="50.0" rx="8" fill="#EF4444" stroke="#991B1B" stroke-width="2"/>
  <text class="label" x="180.0" y="570.7" text-anchor="middle" font-size="11" font-weight="700" fill="#FFFFFF">Oracle Autonomous DB (ATP)</text>
  <text class="label" x="180.0" y="586.7" text-anchor="middle" font-size="11" font-weight="700" fill="#FFFFFF">shared orders/customers/chaos_state</text>
  <rect class="node" x="320.0" y="550.0" width="220.0" height="50.0" rx="8" fill="#F97316" stroke="#9A3412" stroke-width="2"/>
  <text class="label" x="430.0" y="562.7" text-anchor="middle" font-size="11" font-weight="700" fill="#FFFFFF">OCI Cache (Redis)</text>
  <text class="label" x="430.0" y="578.7" text-anchor="middle" font-size="11" font-weight="700" fill="#FFFFFF">streams + cache + rate-limit</text>
  <text class="label" x="430.0" y="594.7" text-anchor="middle" font-size="11" font-weight="700" fill="#FFFFFF">buckets</text>
  <rect class="node" x="560.0" y="550.0" width="110.0" height="50.0" rx="8" fill="#FB923C" stroke="#9A3412" stroke-width="2"/>
  <text class="label" x="615.0" y="546.7" text-anchor="middle" font-size="11" font-weight="700" fill="#111827">OCI Object</text>
  <text class="label" x="615.0" y="562.7" text-anchor="middle" font-size="11" font-weight="700" fill="#111827">Storage</text>
  <text class="label" x="615.0" y="578.7" text-anchor="middle" font-size="11" font-weight="700" fill="#111827">chaos state +</text>
  <text class="label" x="615.0" y="594.7" text-anchor="middle" font-size="11" font-weight="700" fill="#111827">wallet +</text>
  <text class="label" x="615.0" y="610.7" text-anchor="middle" font-size="11" font-weight="700" fill="#111827">artifacts</text>
  <rect class="node" x="60.0" y="690.0" width="130.0" height="70.0" rx="8" fill="#BBF7D0" stroke="#15803D" stroke-width="2"/>
  <text class="label" x="125.0" y="712.7" text-anchor="middle" font-size="11" font-weight="700" fill="#111827">OCI APM</text>
  <text class="label" x="125.0" y="728.7" text-anchor="middle" font-size="11" font-weight="700" fill="#111827">traces + RUM</text>
  <text class="label" x="125.0" y="744.7" text-anchor="middle" font-size="11" font-weight="700" fill="#111827">(apm-domain)</text>
  <rect class="node" x="210.0" y="690.0" width="130.0" height="70.0" rx="8" fill="#BBF7D0" stroke="#15803D" stroke-width="2"/>
  <text class="label" x="275.0" y="712.7" text-anchor="middle" font-size="11" font-weight="700" fill="#111827">OCI Monitoring</text>
  <text class="label" x="275.0" y="728.7" text-anchor="middle" font-size="11" font-weight="700" fill="#111827">custom metrics</text>
  <text class="label" x="275.0" y="744.7" text-anchor="middle" font-size="11" font-weight="700" fill="#111827">(octo_apm_demo)</text>
  <rect class="node" x="360.0" y="690.0" width="170.0" height="70.0" rx="8" fill="#BBF7D0" stroke="#15803D" stroke-width="2"/>
  <text class="label" x="445.0" y="704.7" text-anchor="middle" font-size="11" font-weight="700" fill="#111827">OCI Logging</text>
  <text class="label" x="445.0" y="720.7" text-anchor="middle" font-size="11" font-weight="700" fill="#111827">app + chaos-audit +</text>
  <text class="label" x="445.0" y="736.7" text-anchor="middle" font-size="11" font-weight="700" fill="#111827">security</text>
  <text class="label" x="445.0" y="752.7" text-anchor="middle" font-size="11" font-weight="700" fill="#111827">(LoggingIngestionClient)</text>
  <rect class="node" x="550.0" y="690.0" width="200.0" height="70.0" rx="8" fill="#BBF7D0" stroke="#15803D" stroke-width="2"/>
  <text class="label" x="650.0" y="712.7" text-anchor="middle" font-size="11" font-weight="700" fill="#111827">OCI Log Analytics</text>
  <text class="label" x="650.0" y="728.7" text-anchor="middle" font-size="11" font-weight="700" fill="#111827">SOC Application Logs +</text>
  <text class="label" x="650.0" y="744.7" text-anchor="middle" font-size="11" font-weight="700" fill="#111827">OCI Unified Schema</text>
  <rect class="node" x="770.0" y="690.0" width="170.0" height="70.0" rx="8" fill="#BBF7D0" stroke="#15803D" stroke-width="2"/>
  <text class="label" x="855.0" y="712.7" text-anchor="middle" font-size="11" font-weight="700" fill="#111827">OCI Stack Monitoring</text>
  <text class="label" x="855.0" y="728.7" text-anchor="middle" font-size="11" font-weight="700" fill="#111827">ATP monitored resource</text>
  <text class="label" x="855.0" y="744.7" text-anchor="middle" font-size="11" font-weight="700" fill="#111827">(SQL perf + wait events)</text>
  <rect class="node" x="960.0" y="690.0" width="170.0" height="70.0" rx="8" fill="#BBF7D0" stroke="#15803D" stroke-width="2"/>
  <text class="label" x="1045.0" y="712.7" text-anchor="middle" font-size="11" font-weight="700" fill="#111827">OCI Events + Alarms</text>
  <text class="label" x="1045.0" y="728.7" text-anchor="middle" font-size="11" font-weight="700" fill="#111827">→ Notifications topic</text>
  <text class="label" x="1045.0" y="744.7" text-anchor="middle" font-size="11" font-weight="700" fill="#111827">→ remediator trigger</text>
  <rect class="node" x="1150.0" y="690.0" width="180.0" height="70.0" rx="8" fill="#DBEAFE" stroke="#2563EB" stroke-width="2"/>
  <text class="label" x="1240.0" y="704.7" text-anchor="middle" font-size="11" font-weight="700" fill="#111827">OCI Vault</text>
  <text class="label" x="1240.0" y="720.7" text-anchor="middle" font-size="11" font-weight="700" fill="#111827">secrets + AES-256 master</text>
  <text class="label" x="1240.0" y="736.7" text-anchor="middle" font-size="11" font-weight="700" fill="#111827">key</text>
  <text class="label" x="1240.0" y="752.7" text-anchor="middle" font-size="11" font-weight="700" fill="#111827">(Secrets Store CSI)</text>
  <rect class="node" x="60.0" y="790.0" width="240.0" height="60.0" rx="8" fill="#DBEAFE" stroke="#2563EB" stroke-width="2"/>
  <text class="label" x="180.0" y="815.7" text-anchor="middle" font-size="11" font-weight="700" fill="#111827">OCI IAM Identity Domain (IDCS)</text>
  <text class="label" x="180.0" y="831.7" text-anchor="middle" font-size="11" font-weight="700" fill="#111827">SSO / ID-token (PyJWT)</text>
  <rect class="node" x="320.0" y="790.0" width="200.0" height="60.0" rx="8" fill="#DBEAFE" stroke="#2563EB" stroke-width="2"/>
  <text class="label" x="420.0" y="807.7" text-anchor="middle" font-size="11" font-weight="700" fill="#111827">OCI Generative AI</text>
  <text class="label" x="420.0" y="823.7" text-anchor="middle" font-size="11" font-weight="700" fill="#111827">admin assistant +</text>
  <text class="label" x="420.0" y="839.7" text-anchor="middle" font-size="11" font-weight="700" fill="#111827">LLMetry</text>
  <rect class="node" x="540.0" y="790.0" width="170.0" height="60.0" rx="8" fill="#DBEAFE" stroke="#2563EB" stroke-width="2"/>
  <text class="label" x="625.0" y="815.7" text-anchor="middle" font-size="11" font-weight="700" fill="#111827">OCI Cloud Guard</text>
  <text class="label" x="625.0" y="831.7" text-anchor="middle" font-size="11" font-weight="700" fill="#111827">posture + detectors</text>
  <rect class="node" x="730.0" y="790.0" width="170.0" height="60.0" rx="8" fill="#DBEAFE" stroke="#2563EB" stroke-width="2"/>
  <text class="label" x="815.0" y="815.7" text-anchor="middle" font-size="11" font-weight="700" fill="#111827">OCI Security Zone</text>
  <text class="label" x="815.0" y="831.7" text-anchor="middle" font-size="11" font-weight="700" fill="#111827">compartment policy</text>
  <rect class="node" x="920.0" y="790.0" width="220.0" height="60.0" rx="8" fill="#DBEAFE" stroke="#2563EB" stroke-width="2"/>
  <text class="label" x="1030.0" y="815.7" text-anchor="middle" font-size="11" font-weight="700" fill="#111827">OCI Container Registry (OCIR)</text>
  <text class="label" x="1030.0" y="831.7" text-anchor="middle" font-size="11" font-weight="700" fill="#111827">REGION.ocir.io/NAMESPACE/*</text>
  <rect class="node" x="1160.0" y="790.0" width="200.0" height="60.0" rx="8" fill="#FFEDD5" stroke="#EA580C" stroke-width="2"/>
  <text class="label" x="1260.0" y="793.3" text-anchor="middle" font-size="10" font-weight="700" fill="#111827">Terraform modules</text>
  <text class="label" x="1260.0" y="808.3" text-anchor="middle" font-size="10" font-weight="700" fill="#111827">atp, vault, logging,</text>
  <text class="label" x="1260.0" y="823.3" text-anchor="middle" font-size="10" font-weight="700" fill="#111827">object_storage,</text>
  <text class="label" x="1260.0" y="838.3" text-anchor="middle" font-size="10" font-weight="700" fill="#111827">stack_monitoring, apm_domain,</text>
  <text class="label" x="1260.0" y="853.3" text-anchor="middle" font-size="10" font-weight="700" fill="#111827">waf, iam</text>
</svg>
