<svg xmlns="http://www.w3.org/2000/svg" viewBox="100 20 200 260" width="48" height="48">
  <style>.of{fill:#6ec6d0}.os{fill:none;stroke:#6ec6d0;stroke-width:4}</style>
  <!-- Shield -->
  <path d="M200 28 L268 60 L268 128 L200 160 L132 128 L132 60 Z" class="os" stroke-linejoin="round"/>
  <!-- Brain -->
  <g transform="translate(200,94)" class="of">
    <path d="M-22,-24 C-22,-34 -14,-40 -6,-40 C0,-40 4,-36 4,-30 C4,-36 8,-38 12,-38 C18,-38 22,-34 22,-28 C22,-22 18,-16 14,-14 C18,-12 22,-8 22,-2 C22,6 16,10 10,10 C6,10 2,8 0,4 C-2,8 -6,10 -10,10 C-16,10 -22,6 -22,-2 C-22,-8 -18,-14 -14,-16 C-18,-18 -22,-22 -22,-24 Z" opacity="0.9"/>
    <line x1="0" y1="-30" x2="0" y2="10" stroke="#1a2a3a" stroke-width="1.5" opacity="0.6"/>
    <line x1="-14" y1="-16" x2="14" y2="-16" stroke="#1a2a3a" stroke-width="1.5" opacity="0.6"/>
    <circle cx="0" cy="-24" r="2.5" fill="#1a2a3a" opacity="0.7"/>
    <circle cx="0" cy="-8" r="2.5" fill="#1a2a3a" opacity="0.7"/>
    <circle cx="-10" cy="-16" r="2" fill="#1a2a3a" opacity="0.7"/>
    <circle cx="10" cy="-16" r="2" fill="#1a2a3a" opacity="0.7"/>
  </g>
  <!-- Head -->
  <ellipse cx="200" cy="210" rx="62" ry="52" class="of"/>
  <!-- Eyes -->
  <path d="M175,200 L185,194 L193,200 L185,202 Z" fill="#1a2a3a"/>
  <path d="M207,200 L215,194 L225,200 L215,202 Z" fill="#1a2a3a"/>
  <!-- Simplified tentacles -->
  <path d="M155,245 Q110,270 80,310 Q60,340 55,360 Q50,375 62,372" class="of"/>
  <path d="M162,252 Q130,285 115,320 Q104,348 108,370" class="of"/>
  <path d="M172,258 Q155,295 152,330 Q150,358 158,368" class="of"/>
  <path d="M190,262 Q185,300 188,340 Q190,360 197,365" class="of"/>
  <path d="M210,262 Q215,300 212,340 Q210,360 203,365" class="of"/>
  <path d="M228,258 Q245,295 248,330 Q250,358 242,368" class="of"/>
  <path d="M238,252 Q270,285 285,320 Q296,348 292,370" class="of"/>
  <path d="M245,245 Q290,270 320,310 Q340,340 345,360 Q350,375 338,372" class="of"/>
</svg>
